<svg xmlns="http://www.w3.org/2000/svg" viewBox="0 0 163.57 126.69"><title>PlayStation logo - Brandlogos.net</title><path d="M433.53,541c-6.13,4.09-4.09,11.85,9,15.53a88,88,0,0,0,42.5,3.27,17.7,17.7,0,0,0,2-.41v-13.9l-13.9,4.5a30.25,30.25,0,0,1-15.94.82c-4.09-1.23-3.27-3.68,1.63-5.72l28.2-9.81V520.17l-39.23,13.49A52.85,52.85,0,0,0,433.53,541Zm94.81-61.3v39.64c16.76,8.17,29.83,0,29.83-21.25,0-21.66-7.76-31.47-30.24-39.23a282.79,282.79,0,0,0-36.37-10.22V566.76l28.61,8.58V476c0-4.5,0-7.76,3.27-6.54C527.93,470.72,528.34,475.22,528.34,479.71Zm53.13,51.9a87,87,0,0,0-36.78-4.5,67,67,0,0,0-18.39,4.09l-1.23.41v15.94l26.56-9.81a30.25,30.25,0,0,1,15.94-.82c4.09,1.23,3.27,3.68-1.63,5.72l-40.87,15.12V573.3l56.4-20.84a31.5,31.5,0,0,0,11-6.95C595.36,541.43,594.14,535.7,581.47,531.62Z" transform="translate(-430.22 -448.65)" style="fill:#0070d1"/></svg>